<svg version="1.1" xmlns="http://www.w3.org/2000/svg" width="100" height="100" viewBox="0 0 1700 1700"><path d="M1025 294 C1036.05 294 1047.1 294 1058 294 C1058.68 305.04 1058.68 316.08 1058 327 C1046.96 327.68 1035.92 327.68 1024 327 C1023.32 315.96 1023.32 304.92 1025 294 Z " fill="#5C5C5C" transform="translate(0,0)"/><path d="M650 260 C660.75 260 671.5 260 682 260 C682.68 271.04 682.68 282.08 682 293 C670.96 293.68 659.92 293.68 648 293 C647.32 281.96 647.32 270.92 650 260 Z " fill="#5C5C5C" transform="translate(0,0)"/><path d="M286 261 C296.75 261 307.5 261 318 261 C318.68 272.04 318.68 283.08 318 294 C306.96 294.68 295.92 294.68 284 294 C283.32 282.96 283.32 271.92 286 261 Z " fill="#5C5C5C" transform="translate(0,0)"/><path d="M0 0 C1.98 0.495 1.98 0.495 4 1 C3.67 2.32 3.34 3.64 3 5 C1.68 4.34 0.36 3.68 -1 3 C-0.67 2.01 -0.34 1.02 0 0 Z " fill="#8896A5" transform="translate(437,856)"/><path d="M0 0 C-2 2 -2 2 -5.625 2.125 C-6.73875 2.08375 -7.8525 2.0425 -9 2 C-9 1.34 -9 0.68 -9 0 C-3.375 -1.125 -3.375 -1.125 0 0 Z " fill="#9CA8B5" transform="translate(880,605)"/></svg>
