<?xml version="1.0" encoding="UTF-8"?>
<svg version="1.1" xmlns="http://www.w3.org/2000/svg" width="1700" height="1700" viewBox="0 0 1700 1700">
<defs>
<mask id="cutouts" maskUnits="userSpaceOnUse" x="0" y="0" width="1700" height="1700">
<rect x="0" y="0" width="1700" height="1700" fill="white"/>
<path d="M0 0 C2 2 2 2 2.3671875 5.62109375 C2.23412548 10.46258792 0.48813869 13.91604428 -1.875 18.0625 C-2.27992676 18.79710449 -2.68485352 19.53170898 -3.10205078 20.28857422 C-14.80093168 41.15090536 -29.78142623 61.20139082 -45.96875 78.78515625 C-47.77841988 80.75839244 -49.51839891 82.77107813 -51.25 84.8125 C-59.67441046 94.44596937 -68.89042917 103.1595112 -79 111 C-79.66 110.67 -80.32 110.34 -81 110 C-66.24096101 75.52119615 -50.19426139 41.41496483 -24 14 C-23.40832031 13.35675781 -22.81664062 12.71351563 -22.20703125 12.05078125 C-16.19591556 5.70953564 -9.0691132 -0.56681958 0 0 Z " fill="black" transform="translate(864,663)"/>
<path d="M0 0 C2 2 2 2 2.3671875 5.62109375 C2.23412713 10.46252816 0.48821964 13.91615028 -1.875 18.0625 C-2.28137695 18.79927979 -2.68775391 19.53605957 -3.10644531 20.29516602 C-7.32519596 27.81516167 -12.03881778 34.95425844 -17 42 C-17.5057959 42.72364746 -18.0115918 43.44729492 -18.53271484 44.19287109 C-24.81558682 53.15337496 -31.28958822 61.82593197 -38.48046875 70.078125 C-40.76249649 72.72456957 -42.91340716 75.43332277 -45.0625 78.1875 C-54.93497678 90.30129584 -66.51757541 101.59694006 -79 111 C-79.66 110.67 -80.32 110.34 -81 110 C-32.90153581 -2.05634599 -32.90153581 -2.05634599 0 0 Z " fill="black" transform="translate(798,663)"/>
<path d="M0 0 C-1.26113606 2.72405389 -2.59269477 5.35145582 -4 8 C-4.41056641 8.86367188 -4.82113281 9.72734375 -5.24414062 10.6171875 C-6.9198197 13.60899597 -8.40992552 15.73450481 -11 18 C-16.0014256 19.22815963 -20.8409532 18.95158322 -25.9375 18.625 C-27.30257103 18.57477187 -28.66782002 18.52915609 -30.03320312 18.48828125 C-33.36003086 18.3707255 -36.67771472 18.2066691 -40 18 C-38.42089829 13.74696459 -36.54599833 11.08302871 -33.4375 7.75 C-32.22900391 6.44289063 -32.22900391 6.44289063 -30.99609375 5.109375 C-27.4861548 1.40024187 -24.54430775 1.47165444 -19.5625 0.9375 C-18.33974365 0.80335693 -18.33974365 0.80335693 -17.09228516 0.66650391 C-11.36318061 0.06841683 -5.76317501 -0.18590887 0 0 Z " fill="black" transform="translate(1034,883)"/>
<path d="M0 0 C0.495 0.99 0.495 0.99 1 2 C0.07543945 4.3190918 0.07543945 4.3190918 -1.38671875 7.19921875 C-2.1765918 8.76639648 -2.1765918 8.76639648 -2.98242188 10.36523438 C-3.54509766 11.46158203 -4.10777344 12.55792969 -4.6875 13.6875 C-5.23083984 14.76451172 -5.77417969 15.84152344 -6.33398438 16.95117188 C-7.39610605 19.04587616 -8.47416785 21.13258737 -9.56933594 23.21020508 C-10.99101771 25.88041391 -10.99101771 25.88041391 -11.92285156 28.2800293 C-12.74609375 30.1796875 -12.74609375 30.1796875 -15 33 C-18.43256126 34.13033215 -21.78096157 34.2971848 -25.375 34.4375 C-26.30828125 34.50130859 -27.2415625 34.56511719 -28.203125 34.63085938 C-32.80367051 34.92735346 -37.38914196 35.06939418 -42 35 C-39.37172131 31.52970983 -36.720162 28.76402168 -33.3125 26.0625 C-32.35085938 25.29292969 -31.38921875 24.52335938 -30.3984375 23.73046875 C-29.8631543 23.3029834 -29.32787109 22.87549805 -28.77636719 22.43505859 C-26.78491788 20.82624345 -24.81725882 19.19095682 -22.8515625 17.55078125 C-15.43934653 11.37228414 -8.08809469 5.28607663 0 0 Z " fill="black" transform="translate(1051,848)"/>
<path d="M0 0 C0.66 0 1.32 0 2 0 C3.32861328 1.56054688 3.32861328 1.56054688 4.8203125 3.71875 C5.62275391 4.86923828 5.62275391 4.86923828 6.44140625 6.04296875 C6.99699219 6.85378906 7.55257812 7.66460938 8.125 8.5 C8.68832031 9.31082031 9.25164063 10.12164063 9.83203125 10.95703125 C11.22738744 12.96729017 12.61634849 14.98167493 14 17 C10.18540765 22.81963938 6.24035673 28.48152156 2 34 C-2.62233847 32.46642041 -4.6356531 28.71292205 -7.25 24.875 C-7.93835938 23.88693359 -7.93835938 23.88693359 -8.640625 22.87890625 C-9.76821231 21.2579995 -10.88516391 19.62970314 -12 18 C-10.18074422 13.90667449 -7.58463422 10.38325725 -5 6.75 C-4.32324219 5.77546875 -4.32324219 5.77546875 -3.6328125 4.78125 C-2.47395032 3.14924291 -1.24218497 1.5695175 0 0 Z " fill="black" transform="translate(849,589)"/>
<path d="M0 0 C9.24 0 18.48 0 28 0 C23.57602899 8.84794201 14.88875148 15.81151256 6 20 C3.31640625 20.3046875 3.31640625 20.3046875 1 20 C-1.55188766 17.86193196 -2.80166184 16.19884398 -3.3515625 12.875 C-3.55841174 7.30887503 -2.70708921 5.41417842 0 0 Z " fill="black" transform="translate(993,902)"/>
<path d="M0 0 C6 0 6 0 8.375 1.5625 C10.63326454 4.94989681 10.56116268 7.0017159 10 11 C8 13.9375 8 13.9375 6 16 C6.78375 16.45375 7.5675 16.9075 8.375 17.375 C11 19 11 19 13 21 C13.56112224 27.95791583 13.56112224 27.95791583 11.6875 31.4375 C8.02953874 34.82450116 5.15512919 34 0 34 C0 22.78 0 11.56 0 0 Z " fill="black" transform="translate(718,962)"/>
<path d="M0 0 C0.66 0 1.32 0 2 0 C2.83739781 2.1234016 3.66980283 4.2487728 4.5 6.375 C4.9640625 7.55835938 5.428125 8.74171875 5.90625 9.9609375 C7 13 7 13 7 15 C3.04 15 -0.92 15 -5 15 C-1.85714286 4.28571429 -1.85714286 4.28571429 0 0 Z " fill="black" transform="translate(786,969)"/>
<path d="M0 0 C0.33 1.98 0.66 3.96 1 6 C-2.96 6 -6.92 6 -11 6 C-10.67 4.35 -10.34 2.7 -10 1 C-6.1496895 -1.56687367 -4.41430237 -0.83288724 0 0 Z " fill="black" transform="translate(963,592)"/>
<path d="M0 0 C2.9375 0.75 2.9375 0.75 4.9375 2.75 C4.9375 4.07 4.9375 5.39 4.9375 6.75 C1.3075 6.75 -2.3225 6.75 -6.0625 6.75 C-6.0625 5.1 -6.0625 3.45 -6.0625 1.75 C-3.0625 -0.25 -3.0625 -0.25 0 0 Z " fill="black" transform="translate(742.0625,591.25)"/>
</mask>
</defs>
<g mask="url(#cutouts)">
<path d="M0 0 C3.04643509 2.27954958 4.4907123 4.24470359 5.23046875 8.0078125 C6.01823177 36.72535543 -27.19173344 67.93603865 -45.74609375 87.546875 C-52.99092354 95.14047121 -60.27747395 102.72107392 -68.28125 109.5234375 C-70.86003965 111.73950722 -73.36200431 114.03351675 -75.87109375 116.328125 C-87.89399451 127.265625 -87.89399451 127.265625 -90.30859375 127.265625 C-93.75164721 138.45554874 -95.82443987 150.44608068 -90.30859375 161.265625 C-86.78180359 163.02902008 -83.15871639 162.78460705 -79.30859375 162.265625 C-64.464809 156.73153103 -44.47708195 138.2829008 -36.68359375 124.36328125 C-35.24476887 121.12183769 -34.04395353 117.8624772 -32.87109375 114.515625 C-19.39023707 77.61161479 5.06702309 17.15132915 43.46484375 -0.859375 C49.36799692 -3.17921063 55.89622693 -3.96541636 62.015625 -1.98046875 C65.8893825 -0.15457566 68.46717724 1.50357593 70.69140625 5.265625 C73.44319728 19.26386632 65.17942341 30.26420343 57.87890625 41.328125 C41.10224827 66.17334526 20.62501378 90.03738596 -2.25 109.48828125 C-5.79057153 112.54513144 -9.19162898 115.75736841 -12.625 118.93359375 C-14.92717534 120.93417407 -17.17800793 122.51943116 -19.74609375 124.140625 C-24.86801531 127.9058158 -26.19072179 133.21927351 -27.30859375 139.265625 C-28.05188135 147.15985191 -27.94700246 154.12874638 -24.30859375 161.265625 C-20.78180359 163.02902008 -17.15871639 162.78460705 -13.30859375 162.265625 C-6.08226085 159.57148695 -0.09446403 154.21642122 5.69140625 149.265625 C6.61824219 148.48574219 7.54507812 147.70585938 8.5 146.90234375 C17.28783378 139.21153039 24.51978366 130.45480132 31.69140625 121.265625 C32.44744141 120.31453857 32.44744141 120.31453857 33.21875 119.34423828 C38.78505455 112.29773418 42.61494198 105.8866258 44.89453125 97.05859375 C46.1839123 92.53943958 48.37649308 89.58053817 51.69140625 86.265625 C59.63258272 85.67738971 59.63258272 85.67738971 62.69140625 88.265625 C63.81398502 91.3043296 63.99526181 93.42915223 62.88134766 96.49560547 C61.5985352 99.17091323 60.22692595 101.78038705 58.81640625 104.390625 C57.79507212 106.35646287 56.77690618 108.3239496 55.76171875 110.29296875 C55.24641602 111.2866748 54.73111328 112.28038086 54.20019531 113.30419922 C43.01693311 134.21309099 43.01693311 134.21309099 40.69140625 157.265625 C41.43152921 159.48650577 41.43152921 159.48650577 42.69140625 161.265625 C47.30900692 162.90102524 50.01956026 162.4255191 54.44140625 160.390625 C65.88223987 154.05945692 75.04500837 144.38110652 84.00537109 135.01269531 C85.43107931 133.53537588 86.89517305 132.09524735 88.3671875 130.6640625 C96.5411177 121.99602598 99.22242356 110.38539146 102.69140625 99.265625 C103.2260312 97.58019984 103.76595155 95.89644019 104.3125 94.21484375 C104.65172485 93.16043091 104.65172485 93.16043091 104.99780273 92.0847168 C106.07464034 89.2605292 107.11733918 87.86572075 109.69140625 86.265625 C113.69388864 85.55590647 116.67807437 85.65762587 120.19140625 87.765625 C120.93390625 88.508125 120.93390625 88.508125 121.69140625 89.265625 C121.05389607 93.07854304 119.93866307 96.36540386 118.43359375 99.921875 C117.97573486 101.01781982 117.51787598 102.11376465 117.04614258 103.24291992 C116.55782959 104.4054126 116.0695166 105.56790527 115.56640625 106.765625 C110.72314845 118.4445651 106.47845911 130.20651128 102.69140625 142.265625 C103.201875 141.62238281 103.71234375 140.97914063 104.23828125 140.31640625 C109.51165139 133.76209337 115.03383476 127.5433116 120.77734375 121.40234375 C123.34581092 118.65400021 125.83518691 115.84316294 128.31640625 113.015625 C132.78656712 108.03986245 137.62308911 103.62259938 142.69140625 99.265625 C143.67625 98.40453125 144.66109375 97.5434375 145.67578125 96.65625 C160.64198423 83.7164971 160.64198423 83.7164971 171.52734375 83.69921875 C173.69140625 84.265625 173.69140625 84.265625 175.48046875 86.05078125 C177.51913521 89.77956798 176.646236 93.31583237 175.69140625 97.265625 C173.43177648 104.03481632 170.20181375 110.22760022 166.75390625 116.453125 C160.84917594 127.14132838 155.58978061 139.47939219 155.50390625 151.828125 C155.48263672 153.22224609 155.48263672 153.22224609 155.4609375 154.64453125 C155.70104468 157.37524167 156.21123035 158.97524755 157.69140625 161.265625 C160.700908 162.77037588 162.29999493 162.68955141 165.69140625 162.265625 C181.94508076 154.80772181 196.91901347 139.23781205 206.98046875 124.71875 C220.16658068 105.81263517 246.93157537 87.4337962 269.69140625 82.265625 C278.62762781 81.0973775 287.85326863 81.36282232 295.69140625 86.265625 C298.31640625 88.765625 298.31640625 88.765625 299.69140625 91.265625 C299.69140625 92.585625 299.69140625 93.905625 299.69140625 95.265625 C296.69140625 95.265625 296.69140625 95.265625 295.19140625 93.828125 C294.69640625 93.3125 294.20140625 92.796875 293.69140625 92.265625 C282.32669232 88.47738702 270.33398427 91.99468621 259.94140625 96.828125 C238.69204387 107.88869055 218.43044829 126.04849889 210.69140625 149.265625 C210.55532124 153.55230287 210.52640163 157.13263241 211.69140625 161.265625 C227.74859384 160.35395318 239.23968261 149.53134067 250.69140625 139.265625 C251.20977051 138.80365723 251.72813477 138.34168945 252.26220703 137.86572266 C260.62486828 130.38885881 268.86648067 122.72049969 276.25390625 114.265625 C277.07955078 113.32396484 277.07955078 113.32396484 277.921875 112.36328125 C279.25745786 110.78004064 280.54368752 109.15498119 281.8046875 107.51171875 C287.39237847 100.57294533 287.39237847 100.57294533 291.01953125 99.71484375 C296.26518476 100.11629682 300.36528175 102.41222374 304.69140625 105.265625 C304.13422107 109.57854807 303.09991765 112.95344504 301.171875 116.84375 C300.64940186 117.91069092 300.12692871 118.97763184 299.58862305 120.0769043 C299.0244165 121.21168213 298.46020996 122.34645996 297.87890625 123.515625 C296.69993693 125.92228137 295.52259657 128.32966255 294.34765625 130.73828125 C293.89642647 131.66088493 293.89642647 131.66088493 293.43608093 132.60212708 C290.14939158 139.3394928 287.00724919 146.14094342 283.87890625 152.953125 C283.35772217 154.08717773 282.83653809 155.22123047 282.29956055 156.38964844 C281.09494565 159.01411201 279.89207196 161.63935294 278.69140625 164.265625 C284.40711905 160.60133171 289.73594954 156.76837326 294.81640625 152.265625 C295.4496582 151.7094751 296.08291016 151.1533252 296.73535156 150.58032227 C306.88071051 141.61992322 316.70023862 132.52406508 325.765625 122.46484375 C340.11466271 106.66032478 360.93530285 84.24638016 383.69140625 81.96484375 C394.2354477 81.92365609 394.2354477 81.92365609 398.69140625 85.265625 C401.85359803 88.6774635 402.98901179 91.4551447 403.25390625 96.015625 C402.85448442 104.59675211 398.41925342 111.53203275 392.2265625 117.26171875 C380.90632547 126.20976436 364.28083197 135.57544876 349.44140625 135.328125 C348.20390625 135.3075 346.96640625 135.286875 345.69140625 135.265625 C345.36140625 134.275625 345.03140625 133.285625 344.69140625 132.265625 C345.47902344 132.05808594 346.26664063 131.85054687 347.078125 131.63671875 C364.27223921 126.77353142 381.81472291 116.80966266 392.69140625 102.265625 C393.83493541 99.97856669 393.79475064 98.67297738 393.75390625 96.140625 C393.72296875 94.2225 393.72296875 94.2225 393.69140625 92.265625 C380.84020044 91.22923743 372.31914436 98.47829977 362.69140625 106.265625 C361.77230469 107.00554687 360.85320313 107.74546875 359.90625 108.5078125 C348.33535714 118.39717993 334.82690231 133.56429045 333.41796875 149.32421875 C333.05144484 156.36212004 333.05144484 156.36212004 336.00390625 162.515625 C342.22637309 166.56746387 349.4906247 165.8335056 356.56640625 164.578125 C357.94970928 164.16763264 359.32398949 163.72627958 360.69140625 163.265625 C361.6453125 162.95882812 362.59921875 162.65203125 363.58203125 162.3359375 C397.84305686 150.33630293 419.56107211 119.46281868 436.69140625 89.265625 C435.78648437 89.31783203 435.78648437 89.31783203 434.86328125 89.37109375 C428.32940063 89.59240261 428.32940063 89.59240261 425.12890625 87.953125 C423.69140625 86.265625 423.69140625 86.265625 423.69140625 83.265625 C424.59761719 82.86472656 425.50382812 82.46382812 426.4375 82.05078125 C436.81191278 77.28234671 443.5913125 71.56167731 450.37890625 62.265625 C452.65687752 59.22479824 453.2974588 58.39941847 457.00390625 57.140625 C459.69140625 57.265625 459.69140625 57.265625 461.69140625 58.265625 C462.59515418 64.61240022 459.49859253 68.54577046 456.19140625 73.640625 C455.40443359 74.88779297 455.40443359 74.88779297 454.6015625 76.16015625 C453.30996047 78.20323583 452.00651832 80.23763062 450.69140625 82.265625 C454.44246127 83.44246145 458.06406511 83.43973636 461.9765625 83.51171875 C463.4082097 83.54463695 464.83985018 83.57784892 466.27148438 83.61132812 C468.51859223 83.65883517 470.76566894 83.70332967 473.01293945 83.74243164 C475.18858708 83.7821185 477.36370609 83.83364363 479.5390625 83.88671875 C480.83851807 83.9117749 482.13797363 83.93683105 483.47680664 83.96264648 C486.69140625 84.265625 486.69140625 84.265625 489.69140625 86.265625 C489.52327603 92.82270369 485.68314652 96.46711825 481.69140625 101.265625 C461.46498958 125.56414675 461.46498958 125.56414675 452.56640625 154.828125 C452.56253906 156.00568359 452.56253906 156.00568359 452.55859375 157.20703125 C452.56164259 159.33001477 452.56164259 159.33001477 453.69140625 161.265625 C463.55875917 162.08790441 469.52801646 156.92123094 476.8203125 150.76171875 C487.32144461 141.63216308 496.27015353 132.32331854 504.69140625 121.265625 C506.01140625 121.595625 507.33140625 121.925625 508.69140625 122.265625 C505.98997946 137.52693221 484.66890842 154.53325889 472.69140625 163.265625 C464.15091105 168.38167043 455.76289795 172.06494974 445.69140625 171.265625 C441.53145041 169.69583034 438.92693526 168.14838591 436.69140625 164.265625 C434.45401903 157.36438837 434.41900516 148.26558399 437.25390625 141.578125 C438.02674507 140.11891883 438.84259384 138.68198653 439.69140625 137.265625 C440.43777344 135.95851563 440.43777344 135.95851563 441.19921875 134.625 C445.31128254 127.77793565 450.23712705 122.06743349 455.69140625 116.265625 C463.3299618 108.42772518 463.3299618 108.42772518 467.25390625 98.578125 C467.05601933 95.19831591 467.05601933 95.19831591 464.70703125 93.6640625 C460.82279487 91.86282335 457.0884472 91.22384671 452.87890625 90.578125 C452.09064453 90.44857422 451.30238281 90.31902344 450.49023438 90.18554688 C448.55880812 89.86949531 446.6252918 89.56626211 444.69140625 89.265625 C444.44132812 89.98234375 444.19125 90.6990625 443.93359375 91.4375 C442.56751414 94.54769383 440.90502541 96.83790812 438.81640625 99.515625 C434.96753871 104.54208486 431.26469581 109.64560567 427.62890625 114.828125 C426.59635742 116.29297104 425.5638054 117.75781484 424.53125 119.22265625 C422.86644859 121.5878489 421.21294013 123.95909247 419.5703125 126.33984375 C405.02959973 147.04751162 384.01552932 165.698237 358.69140625 171.265625 C345.56219314 172.31094451 333.89447075 172.41981073 323.25390625 163.953125 C319.08219942 159.96682736 316.9125321 156.33162002 316.48828125 150.44921875 C316.37029373 142.90785003 316.37029373 142.90785003 317.69140625 140.265625 C313.25359902 144.05567776 308.93426046 147.95743331 304.67993164 151.95117188 C289.25027108 166.42497573 289.25027108 166.42497573 281.69677734 171.1315918 C270.53772569 178.46637748 266.2449882 188.49178876 260.87890625 200.390625 C259.97771786 202.32176616 259.07344125 204.2514693 258.16601562 206.1796875 C255.97189298 210.8591996 253.82034618 215.55612282 251.69140625 220.265625 C252.68140625 219.935625 253.67140625 219.605625 254.69140625 219.265625 C258.19652145 218.69484445 261.72777994 218.30964406 265.25390625 217.890625 C266.34074707 217.76051025 267.42758789 217.63039551 268.54736328 217.49633789 C279.51328329 216.22256526 290.50201922 215.26123016 301.50073242 214.32519531 C308.18771574 213.75533443 314.87034944 213.18211136 321.5390625 212.42163086 C340.82671198 210.27710955 360.13035902 210.05183818 379.52368164 210.02539062 C382.24452269 210.02102694 384.96504291 210.00718052 387.68579102 209.984375 C404.82880952 209.84359677 421.57141166 210.56521826 438.59594727 212.61816406 C447.3392625 213.96829592 447.3392625 213.96829592 455.69140625 212.265625 C457.18897496 212.17062997 458.69083557 212.13575302 460.19140625 212.140625 C461.3825 212.13675781 461.3825 212.13675781 462.59765625 212.1328125 C464.69140625 212.265625 464.69140625 212.265625 466.69140625 213.265625 C466.36140625 213.925625 466.03140625 214.585625 465.69140625 215.265625 C464.66080078 215.24822266 464.66080078 215.24822266 463.609375 215.23046875 C462.70832031 215.22144531 461.80726563 215.21242188 460.87890625 215.203125 C459.98558594 215.19152344 459.09226562 215.17992187 458.171875 215.16796875 C455.55726834 215.15552533 455.55726834 215.15552533 452.69140625 216.265625 C446.28568312 216.48749921 440.00289243 215.93008887 433.62890625 215.328125 C429.65099156 214.95802267 425.67205188 214.60511716 421.69140625 214.265625 C420.66168701 214.17224854 419.63196777 214.07887207 418.57104492 213.98266602 C405.44571405 212.93463579 392.28739149 213.06572333 379.12890625 213.078125 C377.85019653 213.07906158 376.57148682 213.07999817 375.25402832 213.08096313 C356.65251123 213.11052958 338.20789778 213.33435616 319.69140625 215.265625 C318.46028107 215.39287964 318.46028107 215.39287964 317.20428467 215.52270508 C308.46294474 216.43033102 299.72395494 217.35511819 290.99804688 218.40185547 C289.0924733 218.63009482 287.18687473 218.85812562 285.28125 219.0859375 C284.35855316 219.19626312 283.43585632 219.30658875 282.48519897 219.42025757 C277.17483958 220.03629816 271.91119095 220.46414117 266.5703125 220.6953125 C256.64285733 220.7430244 256.64285733 220.7430244 247.96679688 224.76269531 C244.96548365 228.54370192 243.25796755 232.73258768 241.56298828 237.21484375 C239.31480213 242.50469353 235.28678576 246.84401824 231.69140625 251.265625 C231.04558594 252.07644531 230.39976562 252.88726563 229.734375 253.72265625 C222.47664063 262.39941812 213.16715123 270.4223204 201.58984375 271.57421875 C194.80326689 271.83164063 189.18774944 271.51457116 183.69140625 267.265625 C179.80821047 263.53814635 177.94010221 260.21966467 177.25390625 254.828125 C177.35389825 247.07160295 182.27797348 240.05472314 186.81005859 234.0703125 C187.34980316 233.35601074 187.88954773 232.64170898 188.44564819 231.90576172 C188.85674835 231.3645166 189.26784851 230.82327148 189.69140625 230.265625 C188.66168701 230.33491211 187.63196777 230.40419922 186.57104492 230.47558594 C170.6590214 231.45056464 154.74183608 231.48736963 138.80639648 231.50585938 C135.62789252 231.5102157 132.44966432 231.52402638 129.27124023 231.546875 C100.86964274 231.74649163 72.97761176 230.03235977 44.87890625 225.703125 C43.21764182 225.45430043 41.55634472 225.20569395 39.89501953 224.95727539 C13.18348939 220.92031373 -13.44075093 216.28530619 -40.07958984 211.7989502 C-64.48719129 207.69269951 -88.82695591 204.62955259 -113.49609375 202.640625 C-114.26349884 202.57800476 -115.03090393 202.51538452 -115.82156372 202.4508667 C-137.44855933 200.70484147 -159.05178164 200.05651333 -180.74609375 200.078125 C-182.44579819 200.07903137 -182.44579819 200.07903137 -184.17984009 200.07995605 C-215.94666841 200.12569944 -248.50399402 201.10023824 -279.68383789 207.7722168 C-282.90152455 208.37708562 -286.12516125 208.76334507 -289.375 209.16015625 C-297.79418436 210.24728647 -305.98365265 212.02893718 -314.24609375 213.953125 C-314.99996368 214.12559753 -315.75383362 214.29807007 -316.5305481 214.47576904 C-327.56352578 217.00147636 -338.43709193 219.83364952 -349.20092773 223.3581543 C-350.09110596 223.63957275 -350.98128418 223.92099121 -351.8984375 224.2109375 C-352.66019287 224.46375488 -353.42194824 224.71657227 -354.20678711 224.97705078 C-356.91833409 225.34934124 -358.08457392 224.82180629 -360.30859375 223.265625 C-362.35075227 218.16022869 -362.90894355 213.66877323 -362.30859375 208.265625 C-360.28726713 204.61757337 -357.39089514 201.45080927 -353.30859375 200.265625 C-351.9660861 200.55983938 -350.63039266 200.88914589 -349.30859375 201.265625 C-350.26572266 201.77222656 -350.26572266 201.77222656 -351.2421875 202.2890625 C-352.48162109 202.95808594 -352.48162109 202.95808594 -353.74609375 203.640625 C-354.56980469 204.08148437 -355.39351563 204.52234375 -356.2421875 204.9765625 C-358.44325953 206.09981059 -358.44325953 206.09981059 -359.30859375 208.265625 C-359.40474669 209.67963885 -359.4384144 211.09835392 -359.43359375 212.515625 C-359.43617188 213.26328125 -359.43875 214.0109375 -359.44140625 214.78125 C-359.28745838 217.66098071 -358.79944431 220.42580837 -358.30859375 223.265625 C-357.39980469 222.95036865 -356.49101562 222.6351123 -355.5546875 222.31030273 C-346.56600128 219.22995864 -337.53893862 216.60596867 -328.30859375 214.328125 C-327.28280716 214.07474869 -327.28280716 214.07474869 -326.23629761 213.81625366 C-297.51550975 206.75431925 -268.71422666 202.22674202 -239.30859375 199.265625 C-238.61624634 199.19559265 -237.92389893 199.1255603 -237.21057129 199.05340576 C-194.10677238 194.78322214 -149.44887866 195.79615724 -106.3949585 200.05993652 C-104.38187774 200.25840015 -102.36794977 200.44821183 -100.35400391 200.63769531 C-68.69973229 203.6343052 -37.40406494 208.75536376 -6.12968445 214.3739624 C12.11207212 217.64449563 30.39853594 220.45633327 48.75390625 223.015625 C49.80384766 223.16442108 50.85378906 223.31321716 51.93554688 223.46652222 C77.74835053 227.10807968 103.28907159 228.6073134 129.33227539 228.52636719 C132.28190168 228.51724102 135.23128186 228.51725512 138.1809082 228.52636719 C152.72882142 228.57116086 167.2847258 228.51849161 181.8125 227.67578125 C183.30475853 227.62003937 183.30475853 227.62003937 184.8271637 227.56317139 C193.21420498 226.95505471 197.23373196 223.23540738 202.73803711 217.21435547 C203.22667236 216.58932129 203.71530762 215.96428711 204.21875 215.3203125 C207.53161094 211.32393439 211.11403326 208.19084177 215.25390625 205.078125 C215.92856934 204.55476562 216.60323242 204.03140625 217.29833984 203.4921875 C221.3761947 200.42452645 225.54872429 197.72759083 229.99427795 195.21800232 C251.41174918 183.11142412 260.56486154 171.38048391 268.89837646 148.39758301 C270.2580802 144.74219538 271.75278116 141.14310508 273.2421875 137.5390625 C276.14677759 130.48072392 278.9523347 123.39015377 281.69140625 116.265625 C278.13138729 119.78066178 274.68827897 123.38159763 271.31640625 127.078125 C270.83671387 127.60293457 270.35702148 128.12774414 269.86279297 128.66845703 C265.20008595 133.78254544 260.56487824 138.91177558 256.25390625 144.328125 C253.02474423 148.02984732 249.42986996 151.09403007 245.69140625 154.265625 C245.11261719 154.79414062 244.53382813 155.32265625 243.9375 155.8671875 C239.57759473 159.8123454 234.91854073 162.59891684 229.69140625 165.265625 C229.03785156 165.63300781 228.38429688 166.00039063 227.7109375 166.37890625 C223.00882339 168.44347086 217.81890016 167.96439133 213.02734375 166.390625 C206.44774675 163.36917864 201.50996424 159.60112256 198.6640625 152.81640625 C197.92463687 150.64583425 197.26514727 148.48509683 196.69140625 146.265625 C195.94117188 147.05066406 195.1909375 147.83570313 194.41796875 148.64453125 C183.95093389 159.45054455 172.18943339 170.24885143 156.31640625 170.515625 C151.68623905 170.45397164 148.52751699 170.0725353 144.69140625 167.265625 C139.65779137 160.73553003 138.85959165 155.30338406 139.69140625 147.265625 C143.04161552 133.53115711 148.75518044 120.75681588 155.3359375 108.296875 C156.9635471 105.21045132 156.9635471 105.21045132 156.69140625 101.265625 C142.6376635 103.15118977 130.06113221 120.1108837 121.83813477 130.76977539 C120.44810086 132.59598634 119.06820424 134.42941778 117.69140625 136.265625 C116.95639893 137.24136475 116.95639893 137.24136475 116.20654297 138.23681641 C114.67860724 140.26571467 113.15365401 142.29683025 111.62890625 144.328125 C110.87504639 145.32888062 110.87504639 145.32888062 110.10595703 146.34985352 C107.71268849 149.53427558 105.35184648 152.73210259 103.0625 155.9921875 C97.67283668 163.54627779 92.76352245 168.63359818 83.5078125 170.76953125 C81.56640625 171.078125 81.56640625 171.078125 78.69140625 171.265625 C79.31116288 166.78795751 80.43764587 162.80131821 81.9765625 158.5546875 C82.197108 157.94168793 82.4176535 157.32868835 82.6448822 156.69711304 C83.34310581 154.75984827 84.04837272 152.82523794 84.75390625 150.890625 C85.23158961 149.56918015 85.70880775 148.24756704 86.18554688 146.92578125 C87.34960461 143.70404571 88.51836795 140.48409924 89.69140625 137.265625 C89.09175049 137.93456787 88.49209473 138.60351074 87.87426758 139.29272461 C86.67966919 140.62315796 86.67966919 140.62315796 85.4609375 141.98046875 C84.67565674 142.85566162 83.89037598 143.73085449 83.08129883 144.63256836 C73.10576762 155.62307853 60.76533486 168.69685469 45.32421875 170.703125 C36.11506159 171.03724408 36.11506159 171.03724408 32.06640625 168.515625 C27.78457489 164.45915319 25.58759653 161.12767201 25.31640625 155.140625 C25.3399268 147.23772172 28.27462916 139.70584591 30.69140625 132.265625 C29.33648741 133.76494562 27.98251947 135.26512554 26.62890625 136.765625 C25.80390625 137.67957031 24.97890625 138.59351563 24.12890625 139.53515625 C22.09385693 141.81480285 20.10602993 144.12359734 18.12890625 146.453125 C14.61760687 150.46032543 10.81771106 153.90193758 6.69140625 157.265625 C6.19801758 157.67135742 5.70462891 158.07708984 5.19628906 158.49511719 C-4.80897967 166.66919887 -11.65226168 170.97262033 -24.953125 170.6875 C-30.75605867 169.95791113 -34.26763887 167.44264354 -38.18359375 163.265625 C-41.2285005 157.85245744 -41.56631993 153.54321487 -41.43359375 147.453125 C-41.42457031 146.66486328 -41.41554688 145.87660156 -41.40625 145.06445312 C-41.38281879 143.13137834 -41.34695213 141.1984612 -41.30859375 139.265625 C-41.93765625 139.97847656 -42.56671875 140.69132813 -43.21484375 141.42578125 C-48.28574858 147.10000156 -53.37490467 152.4797307 -59.30859375 157.265625 C-59.79763184 157.66700684 -60.28666992 158.06838867 -60.79052734 158.48193359 C-70.80113647 166.66203134 -77.64332898 170.97281181 -90.953125 170.6875 C-96.74322858 169.95952423 -100.10013187 167.40047149 -104.18359375 163.453125 C-110.28764746 151.58413167 -106.94737601 138.35369924 -103.30859375 126.265625 C-91.32960101 89.41524858 -72.3555607 50.05120732 -47.30859375 20.265625 C-46.87337402 19.74677734 -46.4381543 19.22792969 -45.98974609 18.69335938 C-34.64657307 5.32155843 -18.33587127 -9.64642914 0 0 Z " fill="#7A899B" transform="translate(803.30859375,657.734375)"/>
<path d="M0 0 C1.81100391 -0.01647248 3.62194519 -0.04364592 5.43261719 -0.08203125 C21.51497102 -0.41946433 38.36562968 0.74371623 50.73779297 12.35009766 C56.10109625 18.25310441 59.27516162 23.72533719 59.04638672 31.82666016 C57.78107919 42.1733521 52.27434954 50.86436577 44.30029297 57.41259766 C26.27129559 69.82038672 4.02505464 76.13100953 -17.59423828 77.88916016 C-18.66005127 77.97633301 -19.72586426 78.06350586 -20.82397461 78.15332031 C-21.62859131 78.21825684 -22.43320801 78.28319336 -23.26220703 78.35009766 C-22.68365967 78.72706787 -22.1051123 79.10403809 -21.5090332 79.49243164 C0.32154809 93.760175 0.32154809 93.760175 8.73779297 101.35009766 C9.38490234 101.92759766 10.03201172 102.50509766 10.69873047 103.10009766 C19.14127933 111.06337518 25.53582524 120.15908525 26.23999023 131.90380859 C26.63681094 145.53387675 20.99499247 156.52613084 11.73779297 166.35009766 C11.09455078 167.04619141 10.45130859 167.74228516 9.78857422 168.45947266 C3.17946279 174.95528503 -4.84689443 178.72889979 -13.26220703 182.35009766 C-14.30505859 182.80900391 -15.34791016 183.26791016 -16.42236328 183.74072266 C-24.62420144 186.68550399 -32.80636777 186.75583117 -41.44970703 186.85009766 C-42.63790039 186.86878906 -43.82609375 186.88748047 -45.05029297 186.90673828 C-56.31949234 186.82510017 -66.63840717 183.8980915 -75.26220703 176.35009766 C-79.10481771 171.73708581 -80.71152616 167.12864387 -82.26220703 161.35009766 C-83.25800781 162.70554687 -83.25800781 162.70554687 -84.27392578 164.08837891 C-85.16539274 165.28012948 -86.05734562 166.47151668 -86.94970703 167.66259766 C-87.60229492 168.55495117 -87.60229492 168.55495117 -88.26806641 169.46533203 C-90.89314251 172.9459885 -93.1598036 175.5762597 -97.26220703 177.35009766 C-99.79736328 177.52978516 -99.79736328 177.52978516 -102.32470703 177.22509766 C-103.16130859 177.14001953 -103.99791016 177.05494141 -104.85986328 176.96728516 C-107.67872181 176.24309061 -109.21214736 175.41892218 -111.26220703 173.35009766 C-116.26398215 151.3164159 -88.30499938 113.06016222 -77.85595703 93.77441406 C-74.62625355 87.80824981 -71.42133015 81.82980378 -68.32080078 75.79541016 C-67.74515381 74.68311035 -67.16950684 73.57081055 -66.57641602 72.42480469 C-65.31579474 69.4754708 -64.85104154 67.34042022 -64.76220703 64.16259766 C-64.30464342 53.77420891 -55.34888096 45.73687247 -48.20751953 38.96337891 C-41.89714636 33.36438733 -36.20955707 30.000344 -27.67236328 30.13916016 C-22.21721811 30.61659588 -17.93245288 32.20560656 -14.26220703 36.35009766 C-12.26220703 39.35009766 -12.26220703 39.35009766 -12.26220703 42.35009766 C-13.27283203 42.28822266 -14.28345703 42.22634766 -15.32470703 42.16259766 C-26.18104067 42.67956592 -34.21811288 50.76938259 -41.26220703 58.35009766 C-43.54136404 61.0627307 -45.66708923 63.86859236 -47.76220703 66.72509766 C-48.3582373 67.53744873 -48.95426758 68.3497998 -49.56835938 69.18676758 C-57.19504557 79.7899882 -63.77686159 91.02467263 -70.26220703 102.35009766 C-70.79056152 103.27161621 -71.31891602 104.19313477 -71.86328125 105.14257812 C-89.25000649 132.91667467 -89.25000649 132.91667467 -97.26220703 163.35009766 C-92.71034969 163.17545957 -90.76517016 162.8316434 -87.41845703 159.62744141 C-86.0552156 157.96810235 -84.75059771 156.27242286 -83.44580078 154.56689453 C-80.89899113 151.47433996 -79.61495593 150.41001975 -75.60595703 149.72900391 C-72.26220703 150.35009766 -72.26220703 150.35009766 -70.37939453 152.02197266 C-69.13204648 154.62134132 -68.72217562 156.74060973 -68.38720703 159.60009766 C-67.15494257 167.06324774 -64.3168008 171.94151433 -58.44970703 176.72509766 C-48.54055543 183.49052954 -35.95617465 182.18705204 -24.63720703 180.22509766 C-13.02449779 177.65388449 -2.18069513 172.5090798 4.55029297 162.41259766 C8.91165265 154.83760453 10.009522 147.51109507 7.93310547 139.08447266 C2.3020927 121.45357749 -11.66000901 108.64539081 -25.44970703 96.93603516 C-29.80416782 93.12588196 -34.04741985 89.17227843 -37.26220703 84.35009766 C-37.38834334 80.94441726 -37.2668995 78.54512006 -35.00439453 75.85400391 C-30.593791 72.52132815 -26.13154269 71.97352891 -20.76220703 71.53759766 C-3.35848745 70.07472171 13.64228279 62.88009485 28.73779297 54.35009766 C29.78451172 53.76357422 30.83123047 53.17705078 31.90966797 52.57275391 C38.78163395 48.47743364 44.01537275 43.84800932 48.17529297 36.97509766 C49.41692124 31.18083239 49.77810691 26.28723397 46.92529297 20.97509766 C39.58360871 13.6334134 25.47324199 12.14937749 15.56225586 11.9699707 C-7.38631374 12.01567198 -30.01690307 15.91981139 -52.26220703 21.35009766 C-53.50768311 21.6456958 -53.50768311 21.6456958 -54.77832031 21.94726562 C-81.78246125 28.39369243 -114.99242761 38.81674541 -130.64501953 63.53369141 C-133.46734432 69.06979003 -134.70011411 75.23229423 -133.26220703 81.35009766 C-129.7057424 86.81205688 -126.00308731 88.78024259 -120.01220703 91.03759766 C-117.36139978 92.0573184 -114.83739465 93.13599665 -112.26220703 94.35009766 C-111.93220703 95.34009766 -111.60220703 96.33009766 -111.26220703 97.35009766 C-120.89194368 98.27209372 -127.63032213 95.42938589 -135.13720703 89.47509766 C-141.51079509 83.46227873 -142.92928682 77.96964561 -143.37280273 69.40087891 C-143.58895184 58.47966075 -138.60081355 51.07298931 -131.26220703 43.35009766 C-96.9712135 11.31219825 -45.69983649 0.3027563 0 0 Z " fill="#79899B" transform="translate(553.26220703125,655.64990234375)"/>
<path d="M0 0 C4.15354331 2.90748031 4.15354331 2.90748031 5.5 5.75 C5.86420547 9.52694563 6.22378864 13.30242272 4.5 16.75 C3.51 16.75 2.52 16.75 1.5 16.75 C0.84 14.11 0.18 11.47 -0.5 8.75 C-7.63486829 7.94445035 -11.23954391 9.13082276 -16.8984375 13.51953125 C-29.60796498 24.41613815 -39.47284599 37.010969 -45.5 52.75 C-45.933125 53.86375 -46.36625 54.9775 -46.8125 56.125 C-48.10206367 62.92451753 -48.52710811 69.86431531 -46.1875 76.4375 C-44.54276456 78.97076102 -44.54276456 78.97076102 -41.5 80.75 C-33.0722167 81.92090366 -27.39553901 80.14995683 -20.58203125 75.41796875 C-9.47126762 66.65798545 0.93811745 50.58416575 3.5 36.75 C3.77345727 32.14557076 3.71856959 27.84284797 2.8125 23.3125 C2.5 20.75 2.5 20.75 3.67041016 19.07080078 C6.16633582 17.26896493 7.44727265 17.62211721 10.4609375 18.0546875 C16.37935973 18.76941634 22.16850551 18.89888968 28.125 18.875 C29.58292969 18.88080078 29.58292969 18.88080078 31.0703125 18.88671875 C36.96048319 18.87880185 42.65849312 18.50879368 48.5 17.75 C46.76904297 21.59179688 46.76904297 21.59179688 44.34765625 23.015625 C34.73806089 26.41200372 25.54603028 26.1283024 15.5 25.75 C15.53222656 26.79929687 15.56445312 27.84859375 15.59765625 28.9296875 C15.1318009 47.15394865 -0.55051654 65.52291252 -13.1171875 77.65625 C-21.40654213 84.94001079 -29.07116295 87.18564162 -40.08203125 87 C-45.85896346 86.57745867 -49.692314 85.22901582 -54.25 81.5 C-59.60970306 74.94925181 -61.18402794 70.41514754 -61 62.0625 C-60.98646484 61.17546387 -60.97292969 60.28842773 -60.95898438 59.37451172 C-60.38876954 41.21051711 -49.95894251 25.4110269 -37.5 12.75 C-27.13047629 3.15663824 -14.52220479 -5.18650171 0 0 Z " fill="#7A8A9B" transform="translate(660.5,741.25)"/>
<path d="M0 0 C2.01308076 0.19846363 4.02700872 0.3882753 6.04095459 0.57775879 C37.69522621 3.57436867 68.99089355 8.69542724 100.26527405 14.31402588 C118.50703062 17.5845591 136.79349444 20.39639674 155.14886475 22.95568848 C156.19880615 23.10448456 157.24874756 23.25328064 158.33050537 23.40658569 C184.20605183 27.05699463 209.84167454 28.49747455 235.96136475 28.76818848 C239.80037692 28.8125351 243.63931937 28.85938438 247.47824097 28.91099548 C249.83566806 28.94227451 252.19315655 28.96935518 254.5506897 28.9912262 C261.76827604 29.08168153 268.90189666 29.5100572 276.08636475 30.20568848 C276.08636475 30.53568848 276.08636475 30.86568848 276.08636475 31.20568848 C267.13832087 31.27654615 258.19037966 31.32916387 249.24211216 31.36112499 C245.08291484 31.3764978 240.9239151 31.39718398 236.76483154 31.43200684 C207.97366213 31.66627675 179.76606427 30.03304981 151.27386475 25.64318848 C149.61260032 25.3943639 147.95130322 25.14575743 146.28997803 24.89733887 C119.57844789 20.8603772 92.95420757 16.22536967 66.31536865 11.73901367 C41.90776721 7.63276299 17.56800259 4.56961607 -7.10113525 2.58068848 C-7.86854034 2.51806824 -8.63594543 2.455448 -9.42660522 2.39093018 C-31.05360084 0.64490495 -52.65682315 -0.00342319 -74.35113525 0.01818848 C-76.05083969 0.01909485 -76.05083969 0.01909485 -77.78488159 0.02001953 C-109.55170992 0.06576292 -142.10903553 1.04030172 -173.28887939 7.71228027 C-176.50656605 8.3171491 -179.73020276 8.70340855 -182.9800415 9.10021973 C-191.39922587 10.18734994 -199.58869416 11.96900066 -207.85113525 13.89318848 C-208.60500519 14.06566101 -209.35887512 14.23813354 -210.1355896 14.41583252 C-221.16856729 16.94153984 -232.04213343 19.773713 -242.80596924 23.29821777 C-243.69614746 23.57963623 -244.58632568 23.86105469 -245.503479 24.15100098 C-246.26523437 24.40381836 -247.02698975 24.65663574 -247.81182861 24.91711426 C-250.5233756 25.28940471 -251.68961542 24.76186977 -253.91363525 23.20568848 C-255.95579378 18.10029217 -256.51398506 13.60883671 -255.91363525 8.20568848 C-253.89230863 4.55763684 -250.99593664 1.39087275 -246.91363525 0.20568848 C-245.57112761 0.49990286 -244.23543417 0.82920937 -242.91363525 1.20568848 C-243.55172119 1.54342285 -244.18980713 1.88115723 -244.847229 2.22912598 C-245.67351807 2.6751416 -246.49980713 3.12115723 -247.35113525 3.58068848 C-248.58670166 4.24197754 -248.58670166 4.24197754 -249.847229 4.91662598 C-252.04830103 6.03987407 -252.04830103 6.03987407 -252.91363525 8.20568848 C-253.0097882 9.61970233 -253.0434559 11.0384174 -253.03863525 12.45568848 C-253.04121338 13.20334473 -253.0437915 13.95100098 -253.04644775 14.72131348 C-252.89249989 17.60104418 -252.40448581 20.36587184 -251.91363525 23.20568848 C-251.00484619 22.89043213 -250.09605713 22.57517578 -249.159729 22.25036621 C-240.17104279 19.17002212 -231.14398012 16.54603215 -221.91363525 14.26818848 C-221.22977753 14.09927094 -220.5459198 13.93035339 -219.84133911 13.75631714 C-191.12055126 6.69438273 -162.31926817 2.16680549 -132.91363525 -0.79431152 C-132.22128784 -0.86434387 -131.52894043 -0.93437622 -130.81561279 -1.00653076 C-87.71181389 -5.27671438 -43.05392016 -4.26377929 0 0 Z " fill="#8795A5" transform="translate(696.9136352539063,857.7943115234375)"/>
<path d="M0 0 C11.40088446 1.24138087 22.83236503 2.17363447 34.25813293 3.15304565 C43.99147825 3.98907749 53.70223778 4.88899664 63.40061951 6.06694031 C108.51781417 11.53476711 154.03240264 13.34781634 199.41889954 14.78466797 C199.08889954 15.77466797 198.75889954 16.76466797 198.41889954 17.78466797 C198.41889954 17.12466797 198.41889954 16.46466797 198.41889954 15.78466797 C197.32690247 15.80037842 196.2349054 15.81608887 195.1098175 15.83227539 C166.95772939 16.1983232 139.11200617 15.19485996 111.04780579 12.99035645 C108.53636759 12.7938588 106.02460969 12.60229238 103.51264954 12.41259766 C85.34729438 11.03510428 67.23454119 9.28679007 49.12226868 7.33789062 C29.90757536 5.27509329 10.66765925 3.49706538 -8.58110046 1.78466797 C-9.39276672 1.7120575 -10.20443298 1.63944702 -11.04069519 1.56463623 C-11.83165588 1.49399963 -12.62261658 1.42336304 -13.43754578 1.35058594 C-14.12165527 1.28942596 -14.80576477 1.22826599 -15.51060486 1.16525269 C-51.10880894 -1.94828922 -86.67329488 -3.611715 -122.4093399 -3.53318787 C-125.01454819 -3.52770912 -127.61974728 -3.52536803 -130.22496033 -3.52331543 C-175.46247767 -3.46799812 -220.46633862 -1.23511594 -265.46147156 3.55938721 C-267.42416013 3.76798786 -269.38737582 3.97161279 -271.35063171 4.17480469 C-286.63169156 5.76621792 -301.82820965 7.89907324 -317.02250671 10.15942383 C-317.75245346 10.26679871 -318.48240021 10.37417358 -319.23446655 10.48480225 C-321.22776606 10.77829596 -323.22049365 11.07566639 -325.21318054 11.37329102 C-328.05427466 11.72031846 -330.7256022 11.87078563 -333.58110046 11.78466797 C-333.58110046 11.12466797 -333.58110046 10.46466797 -333.58110046 9.78466797 C-241.03102343 -3.94785907 -148.31390614 -9.20144847 0 0 Z " fill="#C6CDD3" transform="translate(784.5811004638672,886.21533203125)"/>
<path d="M0 0 C2.72977064 -0.08126109 5.4571017 -0.14061663 8.1875 -0.1875 C9.34088867 -0.22520508 9.34088867 -0.22520508 10.51757812 -0.26367188 C16.29478315 -0.33805649 19.56199109 0.72452501 23.875 4.75 C25.56074526 8.12149051 24.91110391 10.42066322 24 14 C22.4375 15.9375 22.4375 15.9375 21 17 C21.969375 17.639375 22.93875 18.27875 23.9375 18.9375 C26.69100736 21.23317954 27.57517749 22.95867007 28.125 26.5 C28.28069761 29.84193807 28.05068411 30.90837873 26.375 33.9375 C21.07205567 38.54268849 15.87921102 38.25474235 9.1875 38.125 C8.30384766 38.11597656 7.42019531 38.10695313 6.50976562 38.09765625 C4.33972641 38.07419637 2.16982753 38.03832865 0 38 C0.99 37.34 1.98 36.68 3 36 C3.30441916 33.39922648 3.42017445 31.04016599 3.3984375 28.4375 C3.40130768 27.69040771 3.40417786 26.94331543 3.40713501 26.17358398 C3.40917747 24.59325401 3.40363481 23.01289887 3.39111328 21.43261719 C3.37506089 19.00919236 3.39095439 16.58743526 3.41015625 14.1640625 C3.40817385 12.63020464 3.40433023 11.09634782 3.3984375 9.5625 C3.40754654 8.47183228 3.40754654 8.47183228 3.4168396 7.35913086 C3.41996114 5.09813197 3.41996114 5.09813197 3 2 C2.01 1.34 1.02 0.68 0 0 Z " fill="#BD9F61" transform="translate(709,960)"/>
<path d="M0 0 C0.66 0 1.32 0 2 0 C2.46897705 1.08007324 2.9379541 2.16014648 3.42114258 3.27294922 C5.16219488 7.27624349 6.91488113 11.27435359 8.67114258 15.27099609 C9.4298667 17.00202315 10.18542152 18.73444292 10.93774414 20.46826172 C12.0192116 22.95913009 13.1119501 25.44477967 14.20703125 27.9296875 C14.54152786 28.70682098 14.87602448 29.48395447 15.22065735 30.28463745 C16.81610588 33.87618482 17.66113452 35.77408968 21 38 C16.71 38 12.42 38 8 38 C8.99 37.505 8.99 37.505 10 37 C8.515 32.05 8.515 32.05 7 27 C2.38 27 -2.24 27 -7 27 C-7.99 30.3 -8.98 33.6 -10 37 C-9.34 37.33 -8.68 37.66 -8 38 C-11.63 38 -15.26 38 -19 38 C-18.24299805 37.31824707 -17.48599609 36.63649414 -16.70605469 35.93408203 C-13.77130706 32.75203611 -12.38297754 30.02914039 -10.703125 26.0546875 C-10.42402283 25.40299591 -10.14492065 24.75130432 -9.85736084 24.0798645 C-8.97685712 22.01619358 -8.11338967 19.94588043 -7.25 17.875 C-6.65602991 16.47740425 -6.06098738 15.08026376 -5.46484375 13.68359375 C-2.54841761 6.91278985 -2.54841761 6.91278985 0 0 Z " fill="#BB9C5C" transform="translate(787,960)"/>
<path d="M0 0 C2.72084105 -0.00436369 5.44136127 -0.0182101 8.16210938 -0.04101562 C25.30512788 -0.18179386 42.04773002 0.53982763 59.07226562 2.59277344 C67.81558086 3.9429053 67.81558086 3.9429053 76.16772461 2.24023438 C77.66529332 2.14523934 79.16715393 2.11036239 80.66772461 2.11523438 C81.85881836 2.11136719 81.85881836 2.11136719 83.07397461 2.10742188 C85.16772461 2.24023438 85.16772461 2.24023438 87.16772461 3.24023438 C86.83772461 3.90023437 86.50772461 4.56023438 86.16772461 5.24023438 C85.4806543 5.22863281 84.79358398 5.21703125 84.08569336 5.20507812 C83.18463867 5.19605469 82.28358398 5.18703125 81.35522461 5.17773438 C80.4619043 5.16613281 79.56858398 5.15453125 78.64819336 5.14257812 C76.0335867 5.13013471 76.0335867 5.13013471 73.16772461 6.24023438 C66.76200148 6.46210858 60.47921079 5.90469824 54.10522461 5.30273438 C50.12730992 4.93263204 46.14837023 4.57972654 42.16772461 4.24023438 C41.13800537 4.14685791 40.10828613 4.05348145 39.04736328 3.95727539 C25.92203241 2.90924517 12.76370985 3.04033271 -0.39477539 3.05273438 C-1.67348511 3.05367096 -2.95219482 3.05460754 -4.26965332 3.05557251 C-22.86822981 3.08513428 -41.31973026 3.29012647 -59.83227539 5.24023438 C-60.66009521 5.32742737 -61.48791504 5.41462036 -62.34082031 5.50445557 C-71.0410895 6.42754812 -79.73834641 7.37722978 -88.42895508 8.38745117 C-97.97212224 9.49673324 -107.51795926 10.54733289 -117.08227539 11.45898438 C-118.50358765 11.60019714 -118.50358765 11.60019714 -119.95361328 11.7442627 C-121.2625354 11.86505188 -121.2625354 11.86505188 -122.59790039 11.98828125 C-123.36908203 12.06139526 -124.14026367 12.13450928 -124.93481445 12.20983887 C-126.83227539 12.24023438 -126.83227539 12.24023438 -128.83227539 11.24023438 C-128.50227539 10.58023438 -128.17227539 9.92023437 -127.83227539 9.24023438 C-124.71255878 8.82116796 -121.65552815 8.52820542 -118.51977539 8.30273438 C-116.49094756 8.13829799 -114.46230834 7.97152217 -112.43383789 7.80273438 C-111.35521484 7.71378906 -110.2765918 7.62484375 -109.1652832 7.53320312 C-103.56596285 7.0410273 -97.9816522 6.4182277 -92.39477539 5.80273438 C-82.21137238 4.69822085 -72.02518462 3.62794114 -61.83227539 2.61523438 C-60.63030518 2.49220947 -59.42833496 2.36918457 -58.18994141 2.24243164 C-38.81557546 0.34262408 -19.45627437 0.02660449 0 0 Z " fill="#8A98A7" transform="translate(1182.832275390625,867.759765625)"/>
<path d="M0 0 C3.06243788 0.04948284 4.03476301 0.21322096 6.6875 1.9375 C8.56706836 4.91348323 8.50174507 6.85580418 8.1875 10.3125 C9.54875 10.745625 9.54875 10.745625 10.9375 11.1875 C14.1875 12.3125 14.1875 12.3125 16.0390625 13.35546875 C21.19808237 15.6535776 27.66948125 15.18550937 32.9140625 13.3671875 C36.1756964 11.76161539 39.21061517 10.03975833 42.12890625 7.8671875 C47.02362036 4.29067405 51.27568051 3.29225198 57.34375 3.4765625 C63.25516132 4.76217431 68.2112237 7.59600846 73.38793945 10.66625977 C78.47304032 13.65072522 82.27574872 14.99567867 88.1875 15.3125 C88.1875 15.9725 88.1875 16.6325 88.1875 17.3125 C82.55455116 17.68563801 79.20345022 16.71474106 74.25 14.0625 C73.63954834 13.744021 73.02909668 13.42554199 72.40014648 13.09741211 C69.82974777 11.75364714 67.28481165 10.36661401 64.75 8.95703125 C59.47635631 6.10390761 55.65971575 5.28240933 49.84375 7.0078125 C45.31174831 8.67234398 41.48731101 10.69173005 37.5625 13.5 C33.36723703 16.46884028 30.29092937 17.12692075 25.1875 17.3125 C25.8475 19.6225 26.5075 21.9325 27.1875 24.3125 C29.52044775 24.35491723 31.85452567 24.35342937 34.1875 24.3125 C35.46306818 23.26025333 35.46306818 23.26025333 35.3125 20.875 C35.36056676 18.32271378 35.36056676 18.32271378 34.1875 16.3125 C35.5075 16.9725 36.8275 17.6325 38.1875 18.3125 C38.5 20.5625 38.5 20.5625 38.1875 23.3125 C35.59370202 26.13516251 33.90320045 27.18104482 30.125 27.875 C27.1875 27.3125 27.1875 27.3125 24.8125 25.125 C23.0935566 22.14990565 22.80315277 20.67553824 23.1875 17.3125 C22.35089844 17.21066406 21.51429688 17.10882812 20.65234375 17.00390625 C16.09758159 16.09500783 12.05642797 14.28163666 7.84179688 12.39648438 C0.43115965 9.2509621 -4.69757717 9.99189126 -12.0625 12.8125 C-18.43630273 15.1346641 -24.04868576 15.94528927 -30.8125 15.3125 C-31.1425 14.6525 -31.4725 13.9925 -31.8125 13.3125 C-30.97332031 13.39951172 -30.97332031 13.39951172 -30.1171875 13.48828125 C-22.13178768 13.93762047 -14.87644057 12.06813067 -7.8125 8.3125 C-5.81253189 5.87664141 -5.4783614 4.46020844 -4.8125 1.3125 C-3.8125 0.3125 -3.8125 0.3125 0 0 Z " fill="#8F9CAB" transform="translate(740.8125,589.6875)"/>
<path d="M0 0 C1.9375 1.125 1.9375 1.125 3 3 C3.1875 6.1875 3.1875 6.1875 3 9 C3.59167969 9.12117187 4.18335938 9.24234375 4.79296875 9.3671875 C5.97826172 9.61855469 5.97826172 9.61855469 7.1875 9.875 C7.96480469 10.03742187 8.74210938 10.19984375 9.54296875 10.3671875 C12 11 12 11 14.40625 12.0625 C17.51704301 13.18688302 20.01502582 13.19747196 23.3125 13.125 C24.38113281 13.10695313 25.44976563 13.08890625 26.55078125 13.0703125 C27.76314453 13.03550781 27.76314453 13.03550781 29 13 C28.67 13.66 28.34 14.32 28 15 C19.12890562 15.66312167 12.40888927 14.52166876 4.19140625 11.09375 C-1.19927033 9.2462721 -5.14454379 9.7647994 -10.375 11.8125 C-11.32117188 12.17472656 -12.26734375 12.53695312 -13.2421875 12.91015625 C-14.15226563 13.26980469 -15.06234375 13.62945313 -16 14 C-23.65690377 17 -23.65690377 17 -27 17 C-26.9175 18.093125 -26.835 19.18625 -26.75 20.3125 C-27 24 -27 24 -28.625 25.9375 C-31.70557508 27.31565201 -33.65737548 27.48746608 -37 27 C-39.375 25.3125 -39.375 25.3125 -41 23 C-41.25 20.25 -41.25 20.25 -41 18 C-39.68 17.34 -38.36 16.68 -37 16 C-37.66 16.99 -38.32 17.98 -39 19 C-38.60428244 21.78855122 -38.60428244 21.78855122 -37 24 C-34.66702567 24.04092937 -32.33294775 24.04241723 -30 24 C-29.34 21.69 -28.68 19.38 -28 17 C-29.15886719 16.9278125 -30.31773437 16.855625 -31.51171875 16.78125 C-36.38146359 16.17186135 -39.7633668 14.15557366 -43.8125 11.5 C-49.75939292 7.71508096 -53.75384067 5.42490799 -61 6 C-68.13785876 8.08239816 -74.46441711 11.83943031 -80.82421875 15.609375 C-84.45062492 17.19732161 -87.08257742 17.25623393 -91 17 C-91 16.34 -91 15.68 -91 15 C-90.29617188 14.87625 -89.59234375 14.7525 -88.8671875 14.625 C-82.51208687 13.29756384 -77.52344564 11.2902159 -72.0625 7.8125 C-65.40234588 3.7200166 -59.74078194 2.34473845 -52 4 C-47.36157114 5.88906182 -43.25993348 8.39617624 -39.18359375 11.2890625 C-33.77775506 14.91032312 -28.25099386 14.8421028 -22 14 C-19.43288224 13.1393478 -17.1343112 12.13677953 -14.7421875 10.875 C-13 10 -13 10 -11 10 C-11.0825 8.906875 -11.165 7.81375 -11.25 6.6875 C-11 3 -11 3 -9.4375 1.0625 C-6.09741776 -0.39343329 -3.60384106 -0.3931463 0 0 Z " fill="#8A97A7" transform="translate(962,590)"/>
<path d="M0 0 C0 0.66 0 1.32 0 2 C-1.25425781 1.98839844 -2.50851562 1.97679687 -3.80078125 1.96484375 C-47.38229082 1.68614628 -90.47835522 5.3893375 -133.85314941 9.25182343 C-147.32199837 10.44881914 -160.7942453 11.57265834 -174.28030396 12.55881119 C-176.05734977 12.68883838 -177.83427348 12.82054829 -179.61105347 12.95415878 C-190.09854878 13.73832306 -200.48096485 14.17578404 -211 14 C-210.67 13.01 -210.34 12.02 -210 11 C-208.93112549 11.02610352 -207.86225098 11.05220703 -206.76098633 11.07910156 C-191.0851296 11.33144394 -175.5268892 10.12925076 -159.91218948 8.92120743 C-156.90045658 8.68943079 -153.88829994 8.46343358 -150.87613964 8.23729038 C-132.59626544 6.86373503 -114.32602623 5.38928462 -96.0625 3.8125 C-94.14226136 3.64768443 -92.2220141 3.48296918 -90.30175781 3.31835938 C-88.47460663 3.16149025 -86.64745812 3.00459014 -84.8203125 2.84765625 C-83.95720459 2.77358551 -83.09409668 2.69951477 -82.20483398 2.62319946 C-78.45851016 2.30093456 -74.71258233 1.97567769 -70.96777344 1.63623047 C-47.33210488 -0.47781027 -23.70853118 -0.1999941 0 0 Z " fill="#C7CDD3" transform="translate(1252,887)"/>
<path d="M0 0 C0 2.64 0 5.28 0 8 C-0.36738281 7.35546875 -0.73476563 6.7109375 -1.11328125 6.046875 C-4.65541118 2.20406737 -10.04240716 3.2132298 -15 3 C-15 8.28 -15 13.56 -15 19 C-11.04 18.67 -7.08 18.34 -3 18 C-3 19.65 -3 21.3 -3 23 C-3.66 22.67 -4.32 22.34 -5 22 C-6.70363822 21.77377919 -8.41328701 21.59111527 -10.125 21.4375 C-11.73375 21.293125 -13.3425 21.14875 -15 21 C-15 26.28 -15 31.56 -15 37 C-13.2675 36.855625 -11.535 36.71125 -9.75 36.5625 C-8.77546875 36.48128906 -7.8009375 36.40007813 -6.796875 36.31640625 C-3.32575254 35.95400388 -3.32575254 35.95400388 0 35 C0.33 34.01 0.66 33.02 1 32 C1.33 32.99 1.66 33.98 2 35 C1.34 36.32 0.68 37.64 0 39 C-7.92 39 -15.84 39 -24 39 C-23.01 38.34 -22.02 37.68 -21 37 C-20.69558084 34.39922648 -20.57982555 32.04016599 -20.6015625 29.4375 C-20.59869232 28.69040771 -20.59582214 27.94331543 -20.59286499 27.17358398 C-20.59082253 25.59325401 -20.59636519 24.01289887 -20.60888672 22.43261719 C-20.62493911 20.00919236 -20.60904561 17.58743526 -20.58984375 15.1640625 C-20.59182615 13.63020464 -20.59566977 12.09634782 -20.6015625 10.5625 C-20.59245346 9.47183228 -20.59245346 9.47183228 -20.5831604 8.35913086 C-20.58003886 6.09813197 -20.58003886 6.09813197 -21 3 C-21.99 2.34 -22.98 1.68 -24 1 C-20.56255588 0.83216738 -17.12503622 0.66593456 -13.6875 0.5 C-12.22280273 0.42845703 -12.22280273 0.42845703 -10.72851562 0.35546875 C-9.79072266 0.31035156 -8.85292969 0.26523437 -7.88671875 0.21875 C-7.02264404 0.17685547 -6.15856934 0.13496094 -5.26831055 0.09179688 C-3.51337696 0.02077599 -1.75637008 0 0 0 Z " fill="#BB9C5C" transform="translate(931,959)"/>
<path d="M0 0 C0 2.31 0 4.62 0 7 C-0.350625 6.360625 -0.70125 5.72125 -1.0625 5.0625 C-3.80818513 2.13967389 -6.08434343 2.20976732 -10 2 C-10.99 2.33 -11.98 2.66 -13 3 C-13.41890218 5.78938212 -13.41890218 5.78938212 -13 9 C-10.7451308 11.78100535 -8.26483202 13.78682253 -5.4765625 16.03125 C2.57984554 22.77185501 2.57984554 22.77185501 3.375 27.1875 C2.9367653 31.64288613 1.94512697 33.6568829 -1 37 C-5.22256296 39.58830742 -9.18070839 39.53166562 -14 39 C-17.0625 37.9375 -17.0625 37.9375 -19 36 C-19.3125 32.3125 -19.3125 32.3125 -19 29 C-18.34 28.67 -17.68 28.34 -17 28 C-16.5978125 29.423125 -16.5978125 29.423125 -16.1875 30.875 C-15.25013412 34.25267273 -15.25013412 34.25267273 -12 36 C-9.22902515 36.016173 -6.74849127 35.48763555 -4 35 C-2.64382584 33.84960425 -2.64382584 33.84960425 -2.609375 30.76171875 C-3.1123574 25.91799828 -4.54778097 24.86053112 -8.25 21.8125 C-9.71179688 20.58466797 -9.71179688 20.58466797 -11.203125 19.33203125 C-12.58757813 18.17767578 -12.58757813 18.17767578 -14 17 C-17.92415499 13.53091509 -17.92415499 13.53091509 -18.5625 9.0625 C-18.35679998 6.00556911 -17.87536049 4.77841865 -16.3125 2 C-11.13431643 -1.12645046 -5.90006783 -0.38873068 0 0 Z " fill="#BC9E60" transform="translate(988,960)"/>
<path d="M0 0 C1.78776424 5.24084313 -0.18083274 9.97826833 -2 15 C-5.72901169 22.36450584 -5.72901169 22.36450584 -9 24 C-10.64142541 24.14640501 -12.2898141 24.22096589 -13.9375 24.25 C-14.81277344 24.27578125 -15.68804688 24.3015625 -16.58984375 24.328125 C-19 24 -19 24 -20.87890625 22.796875 C-22 21 -22 21 -22.171875 18.7265625 C-20.32286784 14.42453917 -16.8973153 12.18754243 -13.25 9.375 C-12.53328125 8.80265625 -11.8165625 8.2303125 -11.078125 7.640625 C-7.51702079 4.8257816 -3.97919674 2.20892417 0 0 Z " fill="#7A8A9B" transform="translate(886,703)"/>
<path d="M0 0 C0.90492188 0.10957031 1.80984375 0.21914063 2.7421875 0.33203125 C6.78403674 0.8095081 10.8303116 1.24052112 14.87792969 1.66601562 C17.00447276 1.89350319 19.13011629 2.12952428 21.25488281 2.37304688 C44.16086612 4.96325933 67.0038918 5.46509961 90.04492188 5.70922852 C91.88511398 5.72994667 91.88511398 5.72994667 93.76248169 5.75108337 C96.06360564 5.77554 98.36478025 5.7957804 100.66598511 5.81080627 C107.81779729 5.88144577 114.88137859 6.30983447 122 7 C122 7.33 122 7.66 122 8 C113.05195613 8.07085767 104.10401491 8.12347539 95.15574741 8.15543652 C90.9965501 8.17080932 86.83755035 8.1914955 82.6784668 8.22631836 C54.66963292 8.45438906 26.50360365 7.92062308 -1 2 C-0.67 1.34 -0.34 0.68 0 0 Z " fill="#8F9CAB" transform="translate(851,881)"/>
<path d="M0 0 C0.81542431 2.08219049 1.62723189 4.16579761 2.4375 6.25 C3.11619141 7.99023438 3.11619141 7.99023438 3.80859375 9.765625 C5 13 5 13 6 17 C1.38 17.33 -3.24 17.66 -8 18 C-8.99 21.3 -9.98 24.6 -11 28 C-10.34 28.33 -9.68 28.66 -9 29 C-12.63 29 -16.26 29 -20 29 C-18.92298828 28.12601563 -18.92298828 28.12601563 -17.82421875 27.234375 C-13.70164584 23.11325524 -11.96576175 17.55985878 -9.8125 12.25 C-8.94984804 10.14863572 -8.08164906 8.04953716 -7.20703125 5.953125 C-6.8303833 5.02661133 -6.45373535 4.10009766 -6.06567383 3.14550781 C-4.48823595 -0.03032817 -3.51506966 0 0 0 Z " fill="#BEA165" transform="translate(788,969)"/>
<path d="M0 0 C3.96 0 7.92 0 12 0 C12 0.33 12 0.66 12 1 C10.02 1 8.04 1 6 1 C6 12.22 6 23.44 6 35 C8.64 35 11.28 35 14 35 C14 35.66 14 36.32 14 37 C8.39 37 2.78 37 -3 37 C-2.01 36.34 -1.02 35.68 0 35 C0.26686213 32.30459685 0.34818073 29.84152536 0.29296875 27.1484375 C0.28872391 26.37440582 0.28447906 25.60037415 0.28010559 24.80288696 C0.26328998 22.32657323 0.22563395 19.85106842 0.1875 17.375 C0.17245682 15.69792841 0.15876778 14.02084408 0.14648438 12.34375 C0.11337721 8.22885419 0.06157637 4.11456431 0 0 Z " fill="#B99853" transform="translate(712,961)"/>
<path d="M0 0 C4.29 0 8.58 0 13 0 C11.02 0.99 11.02 0.99 9 2 C9.33 13.55 9.66 25.1 10 37 C10.99 37.33 11.98 37.66 13 38 C8.71 38 4.42 38 0 38 C0.99 37.34 1.98 36.68 3 36 C3.30441916 33.39922648 3.42017445 31.04016599 3.3984375 28.4375 C3.40130768 27.69040771 3.40417786 26.94331543 3.40713501 26.17358398 C3.40917747 24.59325401 3.40363481 23.01289887 3.39111328 21.43261719 C3.37506089 19.00919236 3.39095439 16.58743526 3.41015625 14.1640625 C3.40817385 12.63020464 3.40433023 11.09634782 3.3984375 9.5625 C3.40754654 8.47183228 3.40754654 8.47183228 3.4168396 7.35913086 C3.41996114 5.09813197 3.41996114 5.09813197 3 2 C2.01 1.34 1.02 0.68 0 0 Z " fill="#BA9A58" transform="translate(840,960)"/>
<path d="M0 0 C3.63 0 7.26 0 11 0 C10.01 0.66 9.02 1.32 8 2 C3.3565434 6.37811622 -0.7922708 11.20757394 -5 16 C-3.48937651 20.7262197 -0.878312 23.88014193 2.3125 27.5625 C2.78623047 28.12646484 3.25996094 28.69042969 3.74804688 29.27148438 C6.58219643 32.58639254 9.48384162 35.38049403 13 38 C9.11442789 38.48569651 6.41738273 38.81772081 2.96875 36.828125 C-2.72673811 32.08188491 -6.856738 26.09368055 -11 20 C-8.13691144 14.5124136 -4.64549838 9.90818264 -0.70703125 5.13671875 C1.02877001 3.11652223 1.02877001 3.11652223 2 1 C1.34 0.67 0.68 0.34 0 0 Z " fill="#BC9D5E" transform="translate(862,960)"/>
<path d="M0 0 C0.74689087 0.05249405 1.49378174 0.1049881 2.26330566 0.15907288 C10.02837503 0.73315024 17.76851852 1.55745063 25.50628662 2.4173584 C41.12087877 4.14953334 56.7338621 5.63342205 72.40625 6.74609375 C72.40625 7.07609375 72.40625 7.40609375 72.40625 7.74609375 C64.53887971 8.77659757 57.38249255 8.55748711 49.53125 7.55859375 C47.10206018 7.27307712 44.67232414 6.99218613 42.2421875 6.71484375 C41.57860229 6.63885452 40.91501709 6.5628653 40.23132324 6.48457336 C29.89161481 5.32305805 19.52074926 4.46489367 9.15625 3.55859375 C7.10042201 3.37802434 5.04459517 3.19744192 2.98876953 3.0168457 C-1.8718477 2.59067604 -6.73271677 2.1674906 -11.59375 1.74609375 C-7.84162154 -0.75272291 -4.29975282 -0.34744579 0 0 Z " fill="#C9CFD5" transform="translate(806.59375,888.25390625)"/>
<path d="M0 0 C21.42200784 -0.62937346 42.66716125 1.27142862 64 3 C64 3.33 64 3.66 64 4 C50.67292705 5.66701763 37.46857629 4.45502484 24.125 3.5625 C21.7800026 3.41255374 19.43495065 3.2634582 17.08984375 3.11523438 C11.39256291 2.75329703 5.69604571 2.38085735 0 2 C0 1.34 0 0.68 0 0 Z " fill="#909CAB" transform="translate(635,855)"/>
<path d="M0 0 C0.66 0 1.32 0 2 0 C3.32861328 1.56054688 3.32861328 1.56054688 4.8203125 3.71875 C5.62275391 4.86923828 5.62275391 4.86923828 6.44140625 6.04296875 C6.99699219 6.85378906 7.55257812 7.66460938 8.125 8.5 C8.68832031 9.31082031 9.25164063 10.12164063 9.83203125 10.95703125 C11.22738744 12.96729017 12.61634849 14.98167493 14 17 C10.18540765 22.81963938 6.24035673 28.48152156 2 34 C-2.62233847 32.46642041 -4.6356531 28.71292205 -7.25 24.875 C-7.93835938 23.88693359 -7.93835938 23.88693359 -8.640625 22.87890625 C-9.76821231 21.2579995 -10.88516391 19.62970314 -12 18 C-10.18074422 13.90667449 -7.58463422 10.38325725 -5 6.75 C-4.32324219 5.77546875 -4.32324219 5.77546875 -3.6328125 4.78125 C-2.47395032 3.14924291 -1.24218497 1.5695175 0 0 Z M0 3 C-1.85892472 5.02172864 -3.55835413 7.03343995 -5.25 9.1875 C-5.7346875 9.76564453 -6.219375 10.34378906 -6.71875 10.93945312 C-8.29131542 12.85441676 -8.29131542 12.85441676 -10 16 C-9.25936391 20.18842481 -6.47826077 23.40944706 -4 26.8125 C-3.29875 27.78832031 -2.5975 28.76414062 -1.875 29.76953125 C-1.25625 30.50558594 -0.6375 31.24164062 0 32 C0.66 32 1.32 32 2 32 C3.79083852 29.69833213 5.47259242 27.39761099 7.125 25 C7.59292969 24.33226562 8.06085937 23.66453125 8.54296875 22.9765625 C9.70126236 21.32185734 10.85139765 19.66144693 12 18 C9.78364012 14.04221449 7.58809551 10.20600261 4.875 6.5625 C4.37742187 5.88316406 3.87984375 5.20382812 3.3671875 4.50390625 C2.91601562 4.00761719 2.46484375 3.51132812 2 3 C1.34 3 0.68 3 0 3 Z " fill="#8997A6" transform="translate(849,589)"/>
<path d="M0 0 C3.9544053 1.61048413 7.44173612 3.65269367 11 6 C16.31200762 9.46576107 20.7040483 10.71446931 27 11 C24.38260319 12.77982983 22.94539245 12.99843232 19.734375 12.90625 C15.26800287 11.82236053 12.0736793 9.97504692 8.25 7.5 C2.28420301 3.72905592 -1.7484059 1.42447666 -9 2 C-16.13785876 4.08239816 -22.46441711 7.83943031 -28.82421875 11.609375 C-32.45062492 13.19732161 -35.08257742 13.25623393 -39 13 C-39 12.34 -39 11.68 -39 11 C-38.29617188 10.87625 -37.59234375 10.7525 -36.8671875 10.625 C-30.51208687 9.29756384 -25.52344564 7.2902159 -20.0625 3.8125 C-13.40234588 -0.2799834 -7.74078194 -1.65526155 0 0 Z " fill="#8E9BAA" transform="translate(910,594)"/>
<path d="M0 0 C0.68449219 0.09522949 1.36898437 0.19045898 2.07421875 0.28857422 C4.36474129 0.61337278 6.651039 0.9602727 8.9375 1.3125 C10.22696533 1.50948486 10.22696533 1.50948486 11.54248047 1.71044922 C17.01195949 2.55090817 22.47595335 3.42203044 27.9375 4.3125 C24.56391368 6.56155755 24.11718343 6.49499088 20.32421875 5.921875 C19.41172363 5.79014893 18.49922852 5.65842285 17.55908203 5.52270508 C16.59083496 5.3708374 15.62258789 5.21896973 14.625 5.0625 C13.64128418 4.91772217 12.65756836 4.77294434 11.64404297 4.6237793 C9.66579026 4.33194575 7.68823139 4.03536676 5.71142578 3.73388672 C1.99880128 3.16990239 -1.71882432 2.64752161 -5.4375 2.125 C-7.31261031 1.85493142 -9.18766129 1.58444759 -11.0625 1.3125 C-7.27651589 -1.22097809 -4.39208368 -0.62999369 0 0 Z " fill="#8F9CAB" transform="translate(751.0625,864.6875)"/>
<path d="M0 0 C3.63 0 7.26 0 11 0 C10.01 0.66 9.02 1.32 8 2 C3.9978884 5.77341951 0.39934885 9.88219395 -3.23046875 14.01171875 C-6.68715084 17.89571695 -6.68715084 17.89571695 -10 19 C-8.33683133 15.23742169 -5.93143026 12.11356346 -3.4375 8.875 C-0.46232182 5.10438856 -0.46232182 5.10438856 2 1 C1.34 0.67 0.68 0.34 0 0 Z " fill="#BEA268" transform="translate(862,960)"/>
<path d="M0 0 C0 0.33 0 0.66 0 1 C-4.58264761 1.22582973 -9.16604466 1.42764772 -13.75 1.625 C-15.05195312 1.68945312 -16.35390625 1.75390625 -17.6953125 1.8203125 C-18.94570313 1.871875 -20.19609375 1.9234375 -21.484375 1.9765625 C-23.21252441 2.05511475 -23.21252441 2.05511475 -24.97558594 2.13525391 C-27.94797059 2.00232679 -29.5123528 1.56412152 -32 0 C-21.14371373 -1.04459112 -10.83749114 -1.29127554 0 0 Z " fill="#D4D9DD" transform="translate(599,883)"/>
<path d="M0 0 C0 0.33 0 0.66 0 1 C-10.81706097 1.87284642 -21.23811234 2.59435373 -32 1 C-32 0.67 -32 0.34 -32 0 C-21.18845168 -1.0229267 -10.81452748 -0.86039692 0 0 Z " fill="#94A1AF" transform="translate(596,857)"/>
<path d="M0 0 C-2.81134364 0.36696071 -5.62329855 0.71876381 -8.4375 1.0625 C-9.22060547 1.16626953 -10.00371094 1.27003906 -10.81054688 1.37695312 C-16.42084871 2.04649532 -21.40463074 1.80093874 -27 1 C-27 0.67 -27 0.34 -27 0 C-24.47980028 -0.33885038 -21.95901484 -0.67120335 -19.4375 -1 C-18.73302734 -1.09539063 -18.02855469 -1.19078125 -17.30273438 -1.2890625 C-4.57935717 -2.93078859 -4.57935717 -2.93078859 0 0 Z " fill="#8E9BAA" transform="translate(1035,883)"/>
<path d="M0 0 C0.33 0 0.66 0 1 0 C1.268125 0.94875 1.53625 1.8975 1.8125 2.875 C2.74986588 6.25267273 2.74986588 6.25267273 6 8 C6 8.66 6 9.32 6 10 C8.31 10 10.62 10 13 10 C13 10.33 13 10.66 13 11 C8.7136557 11.2521379 5.02890478 11.35696696 0.9375 9.9375 C-1 8 -1 8 -1.375 4.375 C-1 1 -1 1 0 0 Z " fill="#C1AA77" transform="translate(970,988)"/>
<path d="M0 0 C0.79277344 0.05671875 1.58554687 0.1134375 2.40234375 0.171875 C4.35231735 0.31283695 6.30128671 0.4675712 8.25 0.625 C5.07516555 2.7415563 4.58300995 2.85429149 1.01953125 2.6015625 C0.21708984 2.55 -0.58535156 2.4984375 -1.41210938 2.4453125 C-2.66217773 2.34863281 -2.66217773 2.34863281 -3.9375 2.25 C-5.2049707 2.16492188 -5.2049707 2.16492188 -6.49804688 2.078125 C-8.58271217 1.93679176 -10.66646866 1.7821675 -12.75 1.625 C-8.74561779 -1.1952907 -4.62663461 -0.38363471 0 0 Z " fill="#D2D7DC" transform="translate(807.75,888.375)"/>
<path d="M0 0 C0 0.33 0 0.66 0 1 C-13.6332574 4.44419134 -13.6332574 4.44419134 -20 4 C-14.96907324 -1.03092676 -6.63258032 -0.24464436 0 0 Z " fill="#8896A5" transform="translate(516,865)"/>
<path d="M0 0 C2.0625 0.4375 2.0625 0.4375 4 1 C4.33 2.32 4.66 3.64 5 5 C3.35 5.33 1.7 5.66 0 6 C-0.38218767 4.34385343 -0.71395102 2.67542976 -1 1 C-0.67 0.67 -0.34 0.34 0 0 Z " fill="#8493A3" transform="translate(848,603)"/>
<path d="M0 0 C5.44693314 -0.09688221 10.63904667 -0.12862175 16 1 C16 1.33 16 1.66 16 2 C13.7089095 2.19441368 11.41709663 2.38033135 9.125 2.5625 C7.21074219 2.71912109 7.21074219 2.71912109 5.2578125 2.87890625 C2 3 2 3 0 2 C0 1.34 0 0.68 0 0 Z " fill="#94A0AE" transform="translate(1054,877)"/>
<path d="M0 0 C0 0.33 0 0.66 0 1 C-1.74818591 1.22304441 -3.49870323 1.4278645 -5.25 1.625 C-6.22453125 1.74101563 -7.1990625 1.85703125 -8.203125 1.9765625 C-11.13429393 2.00112537 -12.54528964 1.5312717 -15 0 C-9.96266834 -1.5111995 -5.11828973 -0.64599773 0 0 Z " fill="#9FAAB6" transform="translate(527,864)"/>
<path d="M0 0 C2.02408755 0.09002398 4.04544287 0.24641038 6.0625 0.4375 C7.71958984 0.59025391 7.71958984 0.59025391 9.41015625 0.74609375 C10.26480469 0.82988281 11.11945312 0.91367187 12 1 C12 1.33 12 1.66 12 2 C10.58566794 2.2236337 9.16832382 2.42826476 7.75 2.625 C6.96109375 2.74101563 6.1721875 2.85703125 5.359375 2.9765625 C2.67847541 3.00319395 1.27305911 2.36592084 -1 1 C-0.67 0.67 -0.34 0.34 0 0 Z " fill="#97A3B0" transform="translate(851,881)"/>
<path d="M0 0 C-2.91708924 1.98362069 -4.12380904 1.9876191 -7.75 1.625 C-8.8225 1.41875 -9.895 1.2125 -11 1 C-11 0.67 -11 0.34 -11 0 C-7.01803543 -1.05404945 -4.01804691 -0.84098656 0 0 Z " fill="#97A3B0" transform="translate(498,869)"/>
<path d="M0 0 C1.98 0.495 1.98 0.495 4 1 C3.67 2.32 3.34 3.64 3 5 C1.68 4.34 0.36 3.68 -1 3 C-0.67 2.01 -0.34 1.02 0 0 Z " fill="#8896A5" transform="translate(437,856)"/>
<path d="M0 0 C-2 2 -2 2 -5.625 2.125 C-6.73875 2.08375 -7.8525 2.0425 -9 2 C-9 1.34 -9 0.68 -9 0 C-3.375 -1.125 -3.375 -1.125 0 0 Z " fill="#9CA8B5" transform="translate(880,605)"/>
</g>
</svg>
