<svg xmlns="http://www.w3.org/2000/svg" width="1008" height="1008" viewBox="0 0 1008 1008" version="1.1"><path d="M 411 124.673 C 377.355 127.092, 348.724 132.920, 313.500 144.519 C 279.523 155.707, 235.593 178.803, 206.514 200.764 C 165.844 231.481, 131.785 268.504, 106.109 309.907 C 65.982 374.615, 45.132 451.444, 47.330 526.500 C 48.200 556.203, 50.673 577.292, 56.125 601.500 C 68.211 655.171, 87.655 698.859, 119.264 743.365 C 148.843 785.013, 193.268 826.444, 235.821 852.066 C 285.745 882.127, 342.015 901.150, 400.334 907.683 C 418.802 909.752, 466.282 910.020, 481.500 908.141 C 509.947 904.629, 529.225 900.901, 549.582 894.974 C 624.476 873.171, 688.995 832.352, 739.572 774.775 C 761.002 750.379, 781.179 720.462, 795.827 691.361 C 815.789 651.701, 829.908 602.264, 835.198 553.500 C 837.135 535.647, 836.850 490.976, 834.684 473 C 829.796 432.424, 821.994 401.774, 806.870 363.736 C 803.642 355.616, 801 348.304, 801 347.486 C 801 346.183, 811.578 346, 887 346 L 973 346 973 313 L 973 280 704.140 280 C 418.795 280, 421.469 279.960, 396.780 284.580 C 329.941 297.086, 271.467 337.863, 236.683 396.225 C 223.233 418.792, 212.644 446.376, 207.595 472 C 202.529 497.706, 202.501 530.188, 207.519 559.111 C 219.725 629.461, 266.507 692.066, 332 725.698 C 366.091 743.204, 402.669 751.984, 441.500 751.982 C 496.168 751.978, 544.343 735.920, 588.500 702.982 C 600.444 694.073, 622.014 672.822, 631.115 661 C 655.074 629.875, 669.983 595.660, 677.085 555.500 C 680.171 538.054, 680.866 505.667, 678.540 487.765 C 675.124 461.484, 668.699 439.877, 657.050 415.500 C 646.213 392.823, 634.161 374.980, 618.108 357.846 C 613.649 353.087, 610 348.474, 610 347.596 C 610 346.153, 615.497 346, 667.322 346 L 724.643 346 728.943 353.516 C 735.682 365.294, 747.687 392.860, 753.059 408.893 C 768.970 456.376, 774.227 505.214, 768.572 553 C 759.687 628.080, 727.783 694.235, 675.009 747.009 C 630.175 791.843, 574.338 822.753, 513.492 836.421 C 486.375 842.512, 466.312 844.407, 436.096 843.734 C 387.049 842.641, 345.205 832.928, 301.184 812.416 C 250.926 788.998, 202.970 748.341, 170.745 701.830 C 139.333 656.492, 121.475 608.192, 114.797 550.500 C 111.872 525.233, 113.717 484.382, 119.051 456.305 C 131.586 390.327, 163.486 330.751, 211.485 283.678 C 259.615 236.476, 318.480 206.178, 387.110 193.281 L 401.500 190.577 687.250 190.275 L 973 189.973 973 156.986 L 973 124 694.250 124.175 C 540.938 124.271, 413.475 124.495, 411 124.673 M 418.438 347.538 C 376.104 353.720, 336.776 375.642, 309.633 408.188 C 289.873 431.881, 277.215 459.936, 271.819 492 C 269.732 504.401, 270.240 531.397, 272.831 545.787 C 281.209 592.314, 306.782 631.274, 346 657.259 C 371.936 674.444, 397.252 683.150, 429.594 686.007 C 442.067 687.109, 462.439 686.146, 474 683.908 C 517.005 675.583, 554.186 652.194, 581.159 616.500 C 603.318 587.177, 615.174 548.321, 613.654 510 C 612.662 484.988, 607.630 465.072, 596.598 442.500 C 587.809 424.516, 579.897 413.122, 566.500 399.155 C 538.389 369.848, 503.835 352.332, 463.678 347.032 C 453.167 345.645, 429.597 345.909, 418.438 347.538" stroke="none" fill="#000000" fill-rule="evenodd"/><path d="M 1 504 L 1 1007 504 1007 L 1007 1007 1007 504 L 1007 1 504 1 L 1 1 1 504 M 411 124.673 C 377.355 127.092, 348.724 132.920, 313.500 144.519 C 279.523 155.707, 235.593 178.803, 206.514 200.764 C 165.844 231.481, 131.785 268.504, 106.109 309.907 C 65.982 374.615, 45.132 451.444, 47.330 526.500 C 48.200 556.203, 50.673 577.292, 56.125 601.500 C 68.211 655.171, 87.655 698.859, 119.264 743.365 C 148.843 785.013, 193.268 826.444, 235.821 852.066 C 285.745 882.127, 342.015 901.150, 400.334 907.683 C 418.802 909.752, 466.282 910.020, 481.500 908.141 C 509.947 904.629, 529.225 900.901, 549.582 894.974 C 624.476 873.171, 688.995 832.352, 739.572 774.775 C 761.002 750.379, 781.179 720.462, 795.827 691.361 C 815.789 651.701, 829.908 602.264, 835.198 553.500 C 837.135 535.647, 836.850 490.976, 834.684 473 C 829.779 432.285, 821.959 401.622, 806.759 363.500 C 803.470 355.250, 800.555 347.938, 800.282 347.250 C 799.888 346.256, 817.510 346, 886.393 346 L 973 346 973 313 L 973 280 704.140 280 C 418.795 280, 421.469 279.960, 396.780 284.580 C 329.941 297.086, 271.467 337.863, 236.683 396.225 C 223.233 418.792, 212.644 446.376, 207.595 472 C 202.529 497.706, 202.501 530.188, 207.519 559.111 C 219.725 629.461, 266.507 692.066, 332 725.698 C 366.091 743.204, 402.669 751.984, 441.500 751.982 C 496.168 751.978, 544.343 735.920, 588.500 702.982 C 600.444 694.073, 622.014 672.822, 631.115 661 C 655.074 629.875, 669.983 595.660, 677.085 555.500 C 680.171 538.054, 680.866 505.667, 678.540 487.765 C 675.124 461.484, 668.699 439.877, 657.050 415.500 C 646.147 392.685, 634.411 375.357, 617.594 357.244 C 612.867 352.154, 609 347.541, 609 346.994 C 609 346.347, 629.165 346, 666.822 346 L 724.643 346 728.943 353.516 C 735.682 365.294, 747.687 392.860, 753.059 408.893 C 768.970 456.376, 774.227 505.214, 768.572 553 C 759.687 628.080, 727.783 694.235, 675.009 747.009 C 630.175 791.843, 574.338 822.753, 513.492 836.421 C 486.375 842.512, 466.312 844.407, 436.096 843.734 C 387.049 842.641, 345.205 832.928, 301.184 812.416 C 250.926 788.998, 202.970 748.341, 170.745 701.830 C 139.333 656.492, 121.475 608.192, 114.797 550.500 C 111.872 525.233, 113.717 484.382, 119.051 456.305 C 131.586 390.327, 163.486 330.751, 211.485 283.678 C 259.615 236.476, 318.480 206.178, 387.110 193.281 L 401.500 190.577 687.250 190.275 L 973 189.973 973 156.986 L 973 124 694.250 124.175 C 540.938 124.271, 413.475 124.495, 411 124.673 M 418.438 347.538 C 376.104 353.720, 336.776 375.642, 309.633 408.188 C 289.873 431.881, 277.215 459.936, 271.819 492 C 269.732 504.401, 270.240 531.397, 272.831 545.787 C 281.209 592.314, 306.782 631.274, 346 657.259 C 371.936 674.444, 397.252 683.150, 429.594 686.007 C 442.067 687.109, 462.439 686.146, 474 683.908 C 517.005 675.583, 554.186 652.194, 581.159 616.500 C 603.318 587.177, 615.174 548.321, 613.654 510 C 612.662 484.988, 607.630 465.072, 596.598 442.500 C 587.809 424.516, 579.897 413.122, 566.500 399.155 C 538.389 369.848, 503.835 352.332, 463.678 347.032 C 453.167 345.645, 429.597 345.909, 418.438 347.538" stroke="none" fill="#ffffff" fill-rule="evenodd"/></svg>